<?xml version="1.0" ?><!DOCTYPE svg  PUBLIC '-//W3C//DTD SVG 1.1//EN'  'http://www.w3.org/Graphics/SVG/1.1/DTD/svg11.dtd'><svg enable-background="new 0 0 32 32" height="32px" version="1.1" viewBox="0 0 32 32" width="32px" xml:space="preserve" xmlns="http://www.w3.org/2000/svg" xmlns:xlink="http://www.w3.org/1999/xlink"><g id="Periscope"><g id="telegram_1_"><circle cx="16" cy="16" fill="#FFFFFF" r="14.5"/><path d="M30.5,16c0-1.339-0.196-2.631-0.536-3.862C27.83,6.787,22.612,3,16.5,3C8.492,3,2,9.492,2,17.5    c0,1.339,0.196,2.631,0.536,3.862C4.67,26.713,9.888,30.5,16,30.5C24.008,30.5,30.5,24.008,30.5,16z" fill="#80D8FF"/><path d="M15.737,31C7.474,31,1,24.411,1,16c0-3.629,1.237-7.111,3.485-9.804c0.178-0.212,0.493-0.239,0.704-0.063    C5.401,6.31,5.43,6.625,5.253,6.837C3.155,9.35,2,12.604,2,16c0,7.851,6.034,14,13.737,14C23.602,30,30,23.72,30,16    S23.602,2,15.737,2c-2.44,0-4.813,0.62-6.858,1.792C8.642,3.926,8.333,3.846,8.197,3.606C8.06,3.366,8.143,3.061,8.383,2.923    C10.579,1.665,13.122,1,15.737,1C24.153,1,31,7.729,31,16S24.153,31,15.737,31z" fill="#455A64"/><g><g><g><g><g><g><path d="M7.543,4.552c0,0.275-0.225,0.5-0.5,0.5l0,0c-0.275,0-0.5-0.225-0.5-0.5l0,0          c0-0.275,0.225-0.5,0.5-0.5l0,0C7.318,4.052,7.543,4.276,7.543,4.552L7.543,4.552z" fill="#455A64"/></g></g></g></g></g></g></g><g><g><path d="M23.42,13.92c0,5.517-5.934,11.58-7.42,11.58s-7.42-6.063-7.42-11.58c0-4.098,3.322-7.42,7.42-7.42     S23.42,9.822,23.42,13.92z" fill="#FFFFFF"/><path d="M16,26c-1.929,0-7.92-6.42-7.92-12.08C8.08,9.553,11.633,6,16,6s7.92,3.553,7.92,7.92     C23.92,19.58,17.929,26,16,26z M16,7c-3.815,0-6.92,3.104-6.92,6.92C9.08,19.171,14.857,25,16,25s6.92-5.829,6.92-11.08     C22.92,10.104,19.815,7,16,7z" fill="#455A64"/></g><path d="M16,9.442c-0.356,0-0.703,0.042-1.036,0.121c0.604,0.296,1.021,0.915,1.021,1.632    c0,1.004-0.814,1.818-1.818,1.818c-0.967,0-1.756-0.755-1.813-1.707c-0.537,0.741-0.854,1.652-0.854,2.638    c0,2.486,2.016,4.502,4.502,4.502s4.502-2.016,4.502-4.502S18.486,9.442,16,9.442z" fill="#DB5248"/></g></g></svg>